<?xml version="1.0" encoding="UTF-8"?>
<svg version="1.1" viewBox="0 0 2048 2048" width="1280" height="1280" xmlns="http://www.w3.org/2000/svg">
<path transform="translate(454,407)" d="m0 0h140l45 1 19 3 15 5 16 8 12 7 14 12 9 9 11 15 7 12 6 15 4 13 3 21v323h537l1-328 4-20 5-15 8-16 8-13h2l2-4 9-10 7-7 13-10 16-9 16-6 17-4 8-1 21-1h137l47 1 19 3 15 5 17 8 12 8 11 9 12 12 11 15 8 15 6 16 2 9 5-2 18-7 20-4 30-1h112l37 1 20 4 19 8 14 9 10 8 11 11 10 14 8 16 6 18 2 5v875l-2 1-5 16-8 17-9 13-11 12-12 10-15 9-14 6-21 5-9 1h-167l-21-3-20-7-8-4-3 12-5 13-7 14-14 19-11 11-13 10-14 8-16 7-19 5-14 2h-30l-9-3-6-4-6-7-4-9-1-9 2-9 5-9 8-7 11-4 28-1 13-3 12-5 10-7 6-5 7-9 7-14 3-10 1-8v-986l-2-12-5-13-7-12-10-10-13-8-14-5-6-1h-200l-14 4-13 7-12 11-7 10-6 13-3 14v990l3 14 8 16 7 9 8 7 10 6 12 5 10 2 55 1 9 2 9 6 6 7 4 10v11l-4 11-5 6-5 4-8 3-6 1h-55l-21-3-16-5-14-6-16-10-10-9-8-7-11-13-9-15-8-17-5-18-2-14v-326h-538v322l-3 21-5 17-9 19-11 16-14 15-14 11-16 9-20 8-19 4-12 1h-193l-17-2-18-5-18-8-15-10-13-11-8-8-13-18-8-16-6-17-1-5-5 1-14 6-21 5-10 1h-167l-19-3-16-5-19-10-16-13-7-7-10-13-9-16-6-17-3-11v-677l7-11 9-7 5-2 10-1 10 2 8 5 7 8 4 9 1 10v643l2 16 5 12 7 10 10 8 13 6 10 2h163l10-2 10-4 11-8 9-11 4-9 3-17v-830l-2-16-5-12-6-8v-2l-4-2-6-5-9-5-11-3-121-1h-31l-19 1-13 4-11 7-7 7-7 11-3 9-2 18-1 65-6 12-8 7-6 3-5 1h-12l-9-4-8-7-6-9v-93l3-9 6-17 8-15 9-12 16-16 15-10 17-8 19-5 7-1 53-1h96l29 1 17 3 17 6 10 5 2-10 6-16 8-15 8-11 8-10h2l2-4 11-9 13-9 16-8 14-5 13-3 9-1zm-18 62-12 3-15 8-10 9-7 8-6 10-5 15-1 5v994l4 15 6 12 8 10 10 9 15 8 12 3 6 1h193l16-4 14-7 11-9 9-12 6-12 3-11 1-8v-982l-2-15-5-13-6-10-9-10-9-7-14-7-12-3zm1354 86-17 1-13 4-10 6-10 10-6 10-4 11-1 9v838l3 14 6 11 9 10 10 7 13 5 6 1h164l13-3 10-5 9-7v-2h2l7-10 5-14 1-5v-844l-3-12-6-12-9-10-9-6-9-4-8-2-122-1zm-1035 356v226l99-1-2-11-12-50-22-93-12-50-5-20-1-1zm109 0 1 10 22 92 15 63 13 54 2 7h99l3-1-2-12-12-49-16-68-18-76-4-18-2-2zm165 0-1 2 9 36 22 93 21 88 2 6 99 1 3-1-1-8-19-79-10-43-12-50-10-42-1-3zm166 0-1 5 16 66 36 152 1 2 44 1 2-1v-224l-1-1z"/>
<path transform="translate(2047,584)" d="m0 0"/>
</svg>
